<svg width="837" height="384" viewBox="0 0 837 384" fill="none" xmlns="http://www.w3.org/2000/svg">
<path id="Rotation" fill-rule="evenodd" clip-rule="evenodd" d="M644.898 259.02C645.933 258.227 646.928 257.393 647.863 256.493C648.638 255.742 649.372 254.954 650.076 254.138C647.436 251.374 644.785 248.628 642.14 245.918C635.435 239.041 628.505 231.928 622.327 224.613C617.06 218.382 614.651 210.168 615.722 202.078C616.788 193.994 621.262 186.68 628.002 182.005C638.205 174.909 648.981 177.507 658.373 182.348V44.3013C658.373 25.4233 643.01 10.0604 624.132 10.0604H208.992C190.114 10.0604 174.751 25.4233 174.751 44.3013V184.123C184.841 178.241 196.955 174.081 208.359 182.005C215.099 186.68 219.573 193.994 220.638 202.078C221.709 210.168 219.301 218.382 214.034 224.613C207.856 231.928 200.926 239.041 194.221 245.918C191.019 249.202 187.8 252.516 184.622 255.878C190.842 262.18 199.464 266.104 208.992 266.104H624.132C630.659 266.104 636.743 264.234 641.945 261.05C642.968 260.423 643.951 259.748 644.898 259.02ZM164.691 44.3013C164.691 19.8782 184.563 0 208.992 0H624.132C648.555 0 668.433 19.8782 668.433 44.3013V188.822L746.011 255.375C746.952 253.511 747.792 251.504 748.443 249.374C749.343 246.427 749.893 243.267 749.816 239.941C749.573 229.638 743.496 219.708 731.743 210.452C729.565 208.73 729.192 205.564 730.908 203.38C732.624 201.196 735.785 200.841 737.974 202.546C752.225 213.778 759.592 226.312 759.876 239.799C760.054 248.244 757.373 255.706 754.071 261.683C749.118 270.625 742.744 276.223 742.306 276.602C741.353 277.419 740.188 277.815 739.028 277.815C738.448 277.815 737.88 277.656 737.329 277.454C736.536 277.17 735.796 276.75 735.211 276.064C733.406 273.963 733.642 270.797 735.743 268.98C735.796 268.933 737.933 267.045 740.519 263.831C740.474 263.798 740.423 263.774 740.373 263.751C740.317 263.726 740.261 263.7 740.211 263.66L660.432 195.213C659.951 194.902 659.501 194.632 659.051 194.363C658.826 194.228 658.601 194.093 658.373 193.953C647.206 187.07 639.921 185.976 633.737 190.266C629.257 193.379 626.404 198.036 625.694 203.392C624.996 208.683 626.57 214.05 630.008 218.122C635.956 225.158 642.46 231.833 649.348 238.893C651.425 241.024 653.508 243.172 655.591 245.338C658.053 247.894 660.491 250.498 662.906 253.132C672.978 264.115 682.382 275.827 688.956 289.444C699.49 311.257 708.769 334.373 709.113 358.174C709.213 365.441 708.521 372.774 706.734 380.147C706.177 382.45 704.118 384 701.851 384C701.461 384 701.058 383.953 700.662 383.852C697.963 383.201 696.306 380.479 696.957 377.78C703.852 349.309 692.833 320.602 679.896 293.823C674.173 281.976 665.9 271.43 656.893 261.464C654.218 264.405 651.23 267.063 647.863 269.211C646.892 269.826 645.916 270.424 644.898 270.968C643.939 271.483 642.945 271.951 641.945 272.395C636.482 274.803 630.47 276.164 624.132 276.164H208.992C196.842 276.164 185.829 271.241 177.816 263.299C169.454 272.726 161.838 282.703 156.459 293.823C143.528 320.602 132.509 349.309 139.403 377.78C140.054 380.479 138.397 383.201 135.699 383.852C135.302 383.953 134.9 384 134.509 384C132.243 384 130.183 382.45 129.627 380.147C127.84 372.774 127.142 365.441 127.248 358.174C127.591 334.373 136.871 311.257 147.404 289.444C153.547 276.726 162.152 265.66 171.467 255.304C173.816 252.694 176.207 250.137 178.615 247.604C181.409 244.669 184.214 241.764 187.013 238.893C193.901 231.833 200.405 225.158 206.352 218.122C209.791 214.05 211.365 208.683 210.667 203.392C209.956 198.036 207.104 193.379 202.624 190.266C196.049 185.709 188.309 187.141 175.929 195.213L174.751 196.231L96.1496 263.66C96.097 263.703 96.0381 263.73 95.9794 263.757C95.9256 263.782 95.8722 263.806 95.8241 263.843C98.4161 267.051 100.552 268.927 100.612 268.974C102.718 270.785 102.961 273.963 101.15 276.064C100.564 276.75 99.8187 277.17 99.0316 277.454C98.4812 277.656 97.9131 277.815 97.3331 277.815C96.1732 277.815 95.0074 277.419 94.0605 276.602C93.6167 276.223 87.2431 270.625 82.2899 261.683C78.9877 255.706 76.3069 248.244 76.4844 239.799C76.7685 226.312 84.1362 213.778 98.3865 202.546C100.57 200.835 103.724 201.196 105.452 203.38C107.169 205.564 106.796 208.73 104.618 210.452C92.8415 219.731 86.7638 229.679 86.5448 240.012C86.4738 243.326 87.0242 246.468 87.9119 249.398C88.5569 251.528 89.3913 253.534 90.3323 255.392L164.691 191.603V44.3013ZM593.915 249.67H234.397V26.4944H593.915V249.67ZM228.479 20.5765H516.379H599.833V255.588H228.479V20.5765ZM200.369 98.6039C198.73 98.6039 197.411 99.9295 197.411 101.563V174.601C197.411 176.241 198.73 177.56 200.369 177.56C202.003 177.56 203.328 176.241 203.328 174.601V101.563C203.328 99.9295 202.003 98.6039 200.369 98.6039ZM33.7099 378.964C33.7099 381.745 31.4552 383.994 28.6797 383.994C25.8983 383.994 23.6436 381.745 23.6436 378.964C23.6436 365.116 19.5129 355.387 12.37 343.255C2.35693 326.241 -1.60805 305.298 0.587485 280.999C3.41032 249.753 10.9142 219.577 21.7144 196.024C31.5144 174.678 51.0908 165.559 70.028 156.741L72.3715 155.646C72.8908 155.337 94.4647 142.711 116.19 129.997L116.276 129.946C126.957 123.695 137.668 117.427 145.925 112.594C148.322 111.185 151.399 112.002 152.802 114.393C154.204 116.79 153.399 119.873 151.002 121.275C150.175 121.759 149.359 122.237 148.553 122.709L148.488 122.747L148.456 122.766L148.429 122.782C147.208 123.497 146.009 124.199 144.824 124.891C76.9638 164.612 76.9046 164.642 76.5613 164.795L74.277 165.861C56.192 174.282 39.1129 182.235 30.8575 200.22C20.5189 222.761 13.3287 251.771 10.6065 281.905C8.60622 304.067 12.1155 322.987 21.0397 338.148C27.218 348.641 31.4966 358.038 33.0412 369.424C33.4495 372.454 33.7099 375.591 33.7099 378.964ZM814.646 196.024C804.853 174.686 785.289 165.57 766.363 156.752L766.327 156.735L764.333 155.824C763.214 155.185 715.51 127.27 690.436 112.594C688.045 111.191 684.956 112.008 683.559 114.393C682.151 116.79 682.962 119.873 685.358 121.275C685.863 121.57 686.363 121.863 686.859 122.154L687.904 122.766L687.944 122.789C689.161 123.501 690.356 124.201 691.537 124.891C759.397 164.612 759.45 164.642 759.728 164.766L762.078 165.855L762.085 165.858C780.167 174.278 797.249 182.232 805.503 200.22C815.842 222.761 823.032 251.771 825.754 281.905C827.76 304.061 824.251 322.987 815.321 338.148C809.143 348.641 804.864 358.038 803.326 369.424C802.911 372.454 802.651 375.591 802.651 378.964C802.651 381.745 804.906 383.994 807.681 383.994C810.462 383.994 812.711 381.745 812.711 378.964C812.711 365.116 816.848 355.387 823.991 343.255C834.01 326.241 837.975 305.292 835.773 280.999C832.95 249.753 825.447 219.577 814.646 196.024ZM629.754 120.849C620.279 120.849 612.568 128.554 612.568 138.029C612.568 142.887 614.61 147.255 617.859 150.385C619.108 151.587 620.551 152.557 622.114 153.344C624.428 154.498 626.996 155.214 629.754 155.214C632.512 155.214 635.08 154.498 637.388 153.344C638.95 152.557 640.4 151.587 641.643 150.385C644.892 147.255 646.933 142.887 646.933 138.029C646.933 128.554 639.228 120.849 629.754 120.849ZM643.726 156.303C639.832 159.286 635.027 161.132 629.754 161.132C624.481 161.132 619.676 159.286 615.782 156.303C614.622 155.416 613.557 154.433 612.586 153.344C611.752 152.409 610.976 151.445 610.302 150.385C608.017 146.805 606.65 142.586 606.65 138.029C606.65 125.294 617.013 114.931 629.754 114.931C642.489 114.931 652.851 125.294 652.851 138.029C652.851 142.586 651.484 146.805 649.2 150.385C648.531 151.445 647.75 152.409 646.916 153.344C645.945 154.433 644.88 155.416 643.726 156.303Z" fill="#94A8B7"/>
</svg>
